<?xml version="1.0" standalone="no"?>
<!DOCTYPE svg PUBLIC "-//W3C//DTD SVG 20010904//EN"
 "http://www.w3.org/TR/2001/REC-SVG-20010904/DTD/svg10.dtd">
<svg version="1.0" xmlns="http://www.w3.org/2000/svg"
 width="1024.000000pt" height="1024.000000pt" viewBox="0 0 1024.000000 1024.000000"
 preserveAspectRatio="xMidYMid meet">
<metadata>
Created by potrace 1.16, written by Peter Selinger 2001-2019
</metadata>
<g transform="translate(0.000000,1024.000000) scale(0.100000,-0.100000)"
fill="#000000" stroke="none">
<path d="M0 5120 l0 -5120 5120 0 5120 0 -4 2527 c-3 1391 -5 2555 -5 2588 0
33 2 1200 5 2593 l4 2532 -5120 0 -5120 0 0 -5120z m6017 5034 c-3 -3 -12 -4
-19 -1 -8 3 -5 6 6 6 11 1 17 -2 13 -5z m70 -10 c-3 -3 -12 -4 -19 -1 -8 3 -5
6 6 6 11 1 17 -2 13 -5z m63 -8 c0 -3 -4 -8 -10 -11 -5 -3 -10 -1 -10 4 0 6 5
11 10 11 6 0 10 -2 10 -4z m57 -22 c-3 -3 -12 -4 -19 -1 -8 3 -5 6 6 6 11 1
17 -2 13 -5z m60 -10 c-3 -3 -12 -4 -19 -1 -8 3 -5 6 6 6 11 1 17 -2 13 -5z
m50 -10 c-3 -3 -12 -4 -19 -1 -8 3 -5 6 6 6 11 1 17 -2 13 -5z m450 -130 c-3
-3 -12 -4 -19 -1 -8 3 -5 6 6 6 11 1 17 -2 13 -5z m576 -235 c20 -7 37 -17 37
-21 0 -11 2 -11 -55 18 -51 26 -48 27 18 3z m97 -49 c8 -5 11 -10 5 -10 -5 0
-17 5 -25 10 -8 5 -10 10 -5 10 6 0 17 -5 25 -10z m56 -37 c-6 -6 -36 9 -36
18 0 5 9 4 20 -3 10 -7 18 -14 16 -15z m44 -13 c8 -5 11 -10 5 -10 -5 0 -17 5
-25 10 -8 5 -10 10 -5 10 6 0 17 -5 25 -10z m80 -45 c14 -8 21 -14 15 -14 -5
0 -21 6 -35 14 -14 8 -20 14 -15 14 6 0 21 -6 35 -14z m83 -46 c12 -7 24 -15
27 -19 3 -4 20 -15 37 -24 62 -32 341 -218 404 -270 l34 -28 -32 18 c-33 20
-175 115 -183 124 -11 11 -150 100 -232 150 -49 28 -88 54 -88 56 0 7 10 5 33
-7z m-2108 -158 c33 -5 128 -18 210 -30 83 -12 163 -26 179 -31 16 -5 69 -17
120 -26 50 -8 95 -19 101 -24 5 -4 30 -11 55 -15 110 -18 468 -143 650 -227
147 -68 401 -200 430 -223 8 -6 42 -27 75 -45 53 -30 169 -107 330 -218 28
-20 84 -63 125 -96 41 -34 79 -64 85 -68 82 -57 403 -376 523 -521 102 -123
269 -344 321 -425 61 -95 131 -211 131 -218 0 -4 7 -15 15 -23 14 -17 101
-188 150 -296 15 -33 33 -73 41 -90 27 -59 74 -177 74 -187 0 -6 7 -24 15 -41
20 -45 74 -213 121 -382 41 -144 64 -251 85 -385 11 -69 24 -145 29 -170 31
-151 38 -882 10 -1055 -36 -223 -66 -369 -119 -582 -22 -87 -95 -314 -137
-421 -50 -130 -76 -196 -84 -211 -5 -9 -37 -74 -72 -146 -35 -71 -66 -131 -70
-133 -5 -2 -8 -9 -8 -15 0 -16 -172 -303 -222 -372 -17 -23 -114 -156 -133
-181 -40 -55 -157 -200 -220 -273 -58 -68 -423 -431 -475 -474 -295 -240 -493
-373 -784 -526 -44 -23 -84 -45 -90 -49 -6 -5 -74 -37 -151 -71 -77 -34 -149
-67 -160 -72 -46 -22 -341 -122 -425 -144 -8 -2 -58 -16 -110 -30 -116 -32
-201 -51 -345 -76 -60 -10 -130 -23 -155 -29 -190 -42 -873 -49 -1120 -10 -30
4 -115 17 -188 29 -73 11 -137 23 -142 26 -5 3 -47 14 -92 24 -136 31 -252 61
-273 71 -11 5 -42 16 -70 24 -27 9 -88 29 -135 47 -47 17 -106 38 -133 47 -26
9 -47 19 -47 24 0 4 -7 8 -15 8 -17 0 -249 103 -335 148 -162 86 -215 116
-218 124 -2 4 -7 8 -12 8 -4 0 -35 17 -68 37 -34 21 -89 56 -124 77 -401 249
-921 744 -1188 1131 -200 291 -341 535 -435 755 -15 36 -39 89 -51 119 -13 29
-24 58 -24 63 0 6 -7 24 -15 41 -48 106 -125 349 -166 527 -11 47 -24 99 -30
117 -5 17 -19 87 -29 155 -11 68 -24 146 -29 173 -6 28 -15 174 -21 325 -11
273 -2 603 20 740 4 30 18 116 29 190 12 74 25 146 30 160 5 14 15 57 22 95 6
39 16 81 21 95 6 14 18 57 28 95 36 139 59 220 69 240 5 11 21 56 36 99 15 44
38 103 51 132 13 29 24 56 24 60 0 26 239 498 261 514 3 3 14 21 24 40 10 19
26 46 35 60 10 14 39 59 66 100 117 180 313 416 505 610 131 132 337 322 379
348 14 9 45 32 70 52 144 117 555 376 681 430 13 5 31 14 39 20 8 5 51 26 95
46 44 19 88 40 97 44 9 5 59 25 110 45 51 20 107 42 123 50 17 7 50 18 74 25
24 6 51 15 60 20 30 16 251 79 331 94 8 1 22 5 30 9 43 18 499 92 665 107 110
10 786 3 870 -9z m2679 -237 c3 -8 2 -12 -4 -9 -6 3 -10 10 -10 16 0 14 7 11
14 -7z m143 -117 c4 -7 -10 3 -30 21 -21 17 -42 32 -47 32 -5 0 -15 10 -21 22
-8 16 4 9 39 -21 29 -23 55 -48 59 -54z m154 -134 c13 -16 12 -17 -3 -4 -10 7
-18 15 -18 17 0 8 8 3 21 -13z m289 -284 c126 -130 296 -337 432 -528 46 -63
100 -153 64 -106 -9 11 -19 25 -23 30 -5 6 -38 50 -73 100 -75 104 -62 87
-181 235 -51 63 -138 165 -193 225 -92 101 -110 130 -26 44z m1107 -1861 c-3
-8 -6 -5 -6 6 -1 11 2 17 5 13 3 -3 4 -12 1 -19z m123 -388 c0 -5 -4 -10 -10
-10 -5 0 -10 5 -10 10 0 6 5 10 10 10 6 0 10 -4 10 -10z m7 -72 c-3 -7 -5 -2
-5 12 0 14 2 19 5 13 2 -7 2 -19 0 -25z m-9960 -40 c-3 -8 -6 -5 -6 6 -1 11 2
17 5 13 3 -3 4 -12 1 -19z m9970 -15 c-3 -10 -5 -4 -5 12 0 17 2 24 5 18 2 -7
2 -21 0 -30z m-9980 -45 c-3 -8 -6 -5 -6 6 -1 11 2 17 5 13 3 -3 4 -12 1 -19z
m9990 -10 c-3 -7 -5 -2 -5 12 0 14 2 19 5 13 2 -7 2 -19 0 -25z m-10002 -37
c3 -5 1 -12 -5 -16 -5 -3 -10 1 -10 9 0 18 6 21 15 7z m10025 -12 c0 -11 -4
-17 -10 -14 -5 3 -10 13 -10 21 0 8 5 14 10 14 6 0 10 -9 10 -21z m-10043 -71
c-3 -7 -5 -2 -5 12 0 14 2 19 5 13 2 -7 2 -19 0 -25z m10050 -15 c-3 -10 -5
-2 -5 17 0 19 2 27 5 18 2 -10 2 -26 0 -35z m-10060 -55 c-3 -7 -5 -2 -5 12 0
14 2 19 5 13 2 -7 2 -19 0 -25z m10070 -5 c-3 -10 -5 -4 -5 12 0 17 2 24 5 18
2 -7 2 -21 0 -30z m-10080 -65 c-3 -8 -6 -5 -6 6 -1 11 2 17 5 13 3 -3 4 -12
1 -19z m10094 -15 c-9 -16 -10 -14 -11 12 0 21 3 26 11 18 8 -8 8 -16 0 -30z
m18 -85 c0 -38 -1 -40 -10 -19 -8 22 -4 61 7 61 2 0 4 -19 3 -42z m-10132 10
c-3 -8 -6 -5 -6 6 -1 11 2 17 5 13 3 -3 4 -12 1 -19z m-10 -95 c-3 -10 -5 -4
-5 12 0 17 2 24 5 18 2 -7 2 -21 0 -30z m10173 -199 c11 -65 14 -241 4 -232
-6 6 -18 177 -28 373 l-5 100 10 -90 c5 -49 13 -118 19 -151z m-10183 64 c-2
-13 -4 -3 -4 22 0 25 2 35 4 23 2 -13 2 -33 0 -45z m-8 -145 c0 -31 -2 -34 -9
-18 -12 28 -12 55 0 55 6 0 10 -17 9 -37z m10191 -727 c-7 -7 -10 13 -10 66 0
109 14 132 18 29 2 -49 -1 -88 -8 -95z m-13 -118 c-2 -18 -4 -6 -4 27 0 33 2
48 4 33 2 -15 2 -42 0 -60z m-10170 -10 c-3 -8 -6 -5 -6 6 -1 11 2 17 5 13 3
-3 4 -12 1 -19z m10160 -115 c-2 -16 -4 -3 -4 27 0 30 2 43 4 28 2 -16 2 -40
0 -55z m-10150 -5 c-3 -7 -5 -2 -5 12 0 14 2 19 5 13 2 -7 2 -19 0 -25z
m10143 -65 c-1 -31 -3 -35 -11 -20 -6 9 -7 26 -4 37 10 30 15 24 15 -17z m-10
-83 c0 -10 -4 -22 -10 -25 -6 -4 -10 7 -10 25 0 18 4 29 10 25 6 -3 10 -15 10
-25z m-10103 -22 c-3 -8 -6 -5 -6 6 -1 11 2 17 5 13 3 -3 4 -12 1 -19z m10064
-173 c-33 -173 -94 -423 -111 -460 -5 -11 -16 -45 -24 -75 -17 -64 -100 -301
-121 -347 -8 -17 -15 -34 -15 -38 0 -14 -110 -257 -177 -390 -404 -807 -1028
-1503 -1790 -1998 -177 -115 -197 -116 -28 -1 259 175 371 261 610 467 214
185 527 527 726 793 41 54 77 103 82 109 4 5 19 28 33 50 15 22 39 58 54 80
89 131 139 214 241 400 69 124 209 418 209 437 0 8 6 22 14 33 7 11 19 38 26
60 7 22 18 54 26 70 38 86 131 385 164 525 9 42 22 91 28 110 6 19 16 69 22
110 7 41 16 80 20 85 5 6 12 39 17 75 5 41 9 54 11 35 1 -16 -6 -75 -17 -130z
m-10054 93 c-3 -8 -6 -5 -6 6 -1 11 2 17 5 13 3 -3 4 -12 1 -19z m10 -70 c-3
-8 -6 -5 -6 6 -1 11 2 17 5 13 3 -3 4 -12 1 -19z m23 -52 c0 -3 -4 -8 -10 -11
-5 -3 -10 -1 -10 4 0 6 5 11 10 11 6 0 10 -2 10 -4z m7 -68 c-3 -8 -6 -5 -6 6
-1 11 2 17 5 13 3 -3 4 -12 1 -19z m10 -60 c-3 -8 -6 -5 -6 6 -1 11 2 17 5 13
3 -3 4 -12 1 -19z m10 -50 c-3 -8 -6 -5 -6 6 -1 11 2 17 5 13 3 -3 4 -12 1
-19z m23 -48 c0 -5 -5 -10 -11 -10 -5 0 -7 5 -4 10 3 6 8 10 11 10 2 0 4 -4 4
-10z m7 -62 c-3 -7 -5 -2 -5 12 0 14 2 19 5 13 2 -7 2 -19 0 -25z m10 -50 c-3
-7 -5 -2 -5 12 0 14 2 19 5 13 2 -7 2 -19 0 -25z m18 -27 c3 -5 1 -12 -5 -16
-5 -3 -10 1 -10 9 0 18 6 21 15 7z m15 -51 c0 -5 -2 -10 -4 -10 -3 0 -8 5 -11
10 -3 6 -1 10 4 10 6 0 11 -4 11 -10z m30 -102 c5 -9 6 -19 1 -22 -8 -6 -32
70 -30 96 0 7 5 -3 10 -22 5 -19 14 -43 19 -52z m50 -153 c9 -11 40 -113 39
-129 0 -20 -68 173 -73 211 -4 27 -1 22 10 -17 9 -30 19 -59 24 -65z m60 -155
c0 -5 -2 -10 -4 -10 -3 0 -8 5 -11 10 -3 6 -1 10 4 10 6 0 11 -4 11 -10z m32
-104 c-6 -11 -20 20 -21 44 0 8 5 4 13 -10 7 -14 10 -29 8 -34z m95 -196 c31
-67 81 -170 93 -190 5 -8 38 -67 73 -130 88 -159 89 -161 113 -200 161 -265
375 -552 567 -760 73 -80 117 -143 51 -74 -254 266 -525 634 -713 967 -128
226 -272 529 -271 571 0 6 14 -20 31 -59 17 -38 42 -95 56 -125z m1036 -1489
c-4 -6 -93 87 -93 96 0 4 22 -15 48 -42 27 -28 47 -52 45 -54z m108 -98 c13
-17 13 -17 -6 -3 -11 8 -22 16 -24 17 -2 2 0 3 6 3 6 0 17 -8 24 -17z m50 -50
c13 -16 12 -17 -3 -4 -10 7 -18 15 -18 17 0 8 8 3 21 -13z"/>
<path d="M4785 9010 c-22 -4 -101 -13 -175 -20 -74 -6 -157 -16 -185 -22 -167
-34 -241 -50 -335 -73 -58 -14 -109 -27 -115 -28 -5 -2 -37 -11 -70 -20 -33
-10 -67 -21 -75 -26 -8 -4 -40 -16 -71 -24 -31 -9 -69 -24 -85 -32 -16 -8 -34
-15 -40 -15 -12 0 -80 -30 -277 -119 -37 -17 -72 -31 -76 -31 -5 0 -11 -4 -13
-8 -1 -4 -28 -20 -58 -34 -113 -55 -380 -223 -485 -305 -16 -13 -35 -27 -40
-31 -72 -53 -100 -74 -155 -120 -36 -30 -87 -73 -115 -95 -110 -91 -295 -284
-445 -467 -79 -96 -76 -92 -138 -180 -135 -193 -207 -314 -304 -510 -93 -187
-122 -255 -181 -425 -73 -210 -82 -242 -138 -485 -10 -47 -22 -94 -25 -105 -5
-18 -25 -152 -56 -370 -15 -102 -14 -705 0 -800 37 -242 84 -478 102 -520 5
-11 17 -49 25 -84 18 -72 60 -200 100 -306 14 -38 32 -89 40 -111 7 -23 18
-50 24 -60 5 -11 26 -56 46 -102 76 -173 245 -473 338 -597 292 -393 507 -620
862 -907 80 -65 377 -265 455 -306 14 -7 48 -26 75 -41 61 -35 244 -127 340
-171 39 -17 78 -36 88 -41 28 -15 314 -117 350 -125 17 -3 38 -11 47 -15 34
-20 371 -95 510 -114 58 -8 143 -20 190 -27 115 -18 631 -18 765 0 138 18 305
42 335 47 130 24 185 36 222 48 24 8 70 20 103 27 33 7 65 16 70 20 6 5 28 12
50 16 67 12 323 108 476 179 79 37 152 69 162 72 9 3 17 9 17 14 0 5 5 9 11 9
14 0 195 100 279 155 189 123 240 157 295 199 33 25 70 54 83 64 182 137 533
487 675 673 77 100 157 210 157 214 0 3 21 35 48 70 26 35 61 87 77 115 17 29
35 57 41 63 12 14 26 41 126 239 75 150 138 288 138 305 1 4 9 26 20 48 11 22
19 46 20 53 0 8 7 28 15 45 27 58 74 226 126 447 10 47 22 94 24 105 3 11 12
72 20 135 8 63 20 140 26 170 16 80 23 575 10 695 -18 170 -49 409 -55 435 -4
14 -15 66 -26 115 -40 189 -84 351 -111 410 -4 11 -27 72 -49 135 -22 63 -44
124 -49 135 -5 11 -26 58 -47 105 -45 103 -125 256 -170 328 -19 29 -34 54
-34 57 0 8 -67 113 -110 171 -25 34 -52 72 -60 84 -8 12 -40 55 -70 96 -30 40
-64 85 -75 101 -97 135 -402 439 -582 580 -15 12 -46 36 -68 54 -22 17 -74 54
-115 82 -41 28 -93 65 -116 84 -23 18 -44 33 -48 33 -4 0 -33 17 -64 38 -76
51 -252 147 -387 212 -60 28 -117 56 -125 60 -9 4 -63 26 -120 49 -58 23 -114
46 -125 51 -31 13 -143 50 -215 70 -242 67 -331 88 -515 121 -153 28 -369 42
-650 45 -165 1 -318 -1 -340 -6z m725 -308 c162 -17 352 -51 555 -100 85 -21
339 -103 392 -127 17 -8 34 -15 38 -15 42 0 574 -272 605 -310 3 -3 37 -25 75
-48 58 -35 154 -102 250 -176 297 -228 627 -584 813 -876 23 -36 45 -69 50
-75 28 -34 252 -468 252 -489 0 -3 11 -29 24 -58 34 -76 123 -345 131 -398 4
-25 11 -50 15 -55 5 -6 16 -53 25 -105 9 -52 20 -109 26 -126 5 -17 18 -109
28 -205 21 -197 26 -653 9 -804 -24 -218 -67 -474 -88 -520 -5 -11 -14 -45
-20 -75 -14 -62 -88 -291 -126 -390 -65 -166 -154 -340 -265 -520 -35 -55 -88
-136 -101 -155 -20 -26 -85 -116 -98 -135 -20 -30 -204 -253 -260 -315 -218
-244 -519 -487 -847 -684 -131 -78 -361 -201 -377 -201 -3 0 -29 -11 -58 -24
-29 -13 -64 -27 -78 -31 -14 -4 -29 -11 -35 -15 -5 -4 -28 -13 -50 -20 -22 -7
-53 -18 -70 -26 -43 -18 -178 -62 -249 -81 -215 -54 -274 -67 -386 -83 -69
-10 -156 -23 -195 -29 -161 -25 -647 -23 -774 4 -14 2 -81 12 -150 21 -69 9
-133 20 -141 24 -9 5 -45 14 -80 20 -221 40 -683 208 -885 320 -218 122 -354
202 -380 223 -5 4 -25 17 -43 30 -111 75 -161 113 -277 209 -135 111 -331 297
-427 406 -148 166 -418 529 -418 561 0 5 -7 16 -14 24 -14 14 -152 281 -188
363 -88 200 -190 526 -219 699 -6 39 -15 77 -20 86 -7 14 -30 191 -47 359 -9
86 -9 503 0 605 14 159 39 350 53 395 7 25 20 79 28 120 25 125 47 214 57 235
5 11 16 48 25 81 8 34 22 74 30 90 8 16 15 35 15 43 0 13 32 94 70 176 10 22
34 76 54 121 59 134 205 383 301 514 11 15 29 40 40 56 49 73 200 250 305 358
190 195 503 453 690 569 119 73 192 114 331 184 166 83 196 96 301 137 38 15
96 37 130 50 35 14 83 30 108 36 25 6 54 15 65 20 22 11 160 46 240 62 210 41
267 50 389 63 76 8 141 17 144 20 10 9 586 -1 702 -13z"/>
<path d="M4825 8179 c-101 -10 -107 -11 -260 -34 -60 -9 -113 -19 -118 -22 -4
-2 -54 -16 -110 -29 -56 -14 -120 -29 -142 -35 -54 -14 -213 -67 -250 -84 -16
-7 -59 -26 -95 -40 -61 -26 -261 -123 -305 -149 -97 -56 -135 -80 -239 -150
-184 -125 -153 -101 -340 -267 -135 -120 -201 -187 -296 -301 -134 -161 -294
-404 -381 -578 -43 -86 -149 -343 -149 -361 0 -6 -7 -25 -15 -42 -21 -48 -58
-190 -100 -392 -2 -11 -11 -69 -20 -130 -8 -60 -19 -137 -25 -170 -33 -214 -8
-748 44 -939 8 -28 17 -69 21 -91 3 -22 15 -67 25 -100 77 -249 94 -302 101
-315 5 -8 22 -49 40 -90 30 -72 127 -273 152 -315 111 -189 170 -276 280 -414
123 -154 172 -206 308 -330 143 -130 351 -287 524 -395 70 -43 367 -192 433
-216 31 -11 71 -27 89 -35 17 -8 36 -15 43 -15 7 0 26 -6 43 -14 18 -8 59 -22
92 -32 73 -21 67 -19 85 -27 65 -27 347 -83 520 -103 140 -17 667 -13 750 5
25 5 104 21 175 34 146 28 260 54 290 67 11 4 72 24 135 45 63 20 129 43 145
50 17 8 63 28 103 45 80 34 330 161 371 189 14 10 55 37 91 61 200 133 197
131 375 284 198 170 467 478 559 642 9 16 30 49 46 74 31 49 176 331 202 395
61 150 112 297 128 370 6 28 14 59 20 70 8 19 22 89 55 285 21 121 38 510 30
675 -13 261 -35 405 -105 685 -11 47 -25 92 -29 100 -5 8 -16 42 -26 75 -9 33
-20 65 -25 70 -4 6 -11 21 -15 35 -4 14 -15 43 -25 65 -34 73 -77 170 -81 180
-4 11 -100 183 -134 240 -17 29 -68 103 -140 205 -139 197 -360 432 -522 557
-15 12 -53 41 -83 65 -60 48 -76 59 -165 118 -33 21 -64 43 -70 47 -20 17
-233 132 -315 172 -287 136 -606 236 -897 281 -40 7 -85 14 -100 16 -129 22
-524 29 -698 13z m521 -319 c82 0 96 -3 118 -22 l25 -23 3 -928 c2 -623 0
-927 -7 -927 -6 0 -28 21 -50 47 -22 26 -53 61 -70 78 -16 18 -57 61 -90 96
-33 35 -116 123 -185 194 -184 192 -270 284 -312 336 l-38 46 0 515 c0 448 2
519 16 546 8 18 16 33 17 34 4 4 423 14 451 11 16 -2 70 -3 122 -3z m-1526
-700 c15 -10 112 -110 216 -222 104 -111 196 -209 204 -218 8 -9 58 -63 110
-120 52 -58 133 -146 180 -195 110 -117 205 -220 445 -480 61 -66 178 -192
260 -280 83 -89 197 -212 255 -275 58 -63 209 -225 336 -360 127 -135 247
-263 265 -285 32 -38 108 -120 256 -275 l63 -65 0 1373 0 1373 25 24 24 25
411 0 c444 0 436 1 482 -54 17 -20 18 -142 18 -2042 l0 -2021 -35 -36 -36 -37
-418 0 -418 0 -149 153 c-82 84 -191 199 -243 257 -52 58 -138 150 -191 205
-116 120 -606 638 -676 714 -27 30 -71 77 -99 106 -124 128 -576 605 -615 650
-24 28 -83 91 -131 140 -47 50 -146 153 -220 230 -74 77 -171 178 -217 225
l-82 85 0 -1100 c0 -605 -3 -1219 -7 -1364 -6 -248 -7 -264 -27 -282 -20 -19
-38 -19 -453 -17 l-433 3 -27 28 -28 27 0 2024 c0 2203 -4 2060 55 2091 20 12
108 14 448 15 406 0 425 -1 452 -20z m1051 -3052 c57 -62 151 -162 209 -223
58 -61 137 -146 175 -189 39 -43 88 -97 110 -120 22 -22 62 -67 89 -99 l49
-58 -7 -527 c-4 -290 -8 -534 -10 -542 -7 -33 -20 -51 -48 -66 -25 -13 -71
-14 -321 -9 -161 3 -302 8 -315 11 -12 2 -31 19 -42 37 -19 31 -20 55 -20 965
0 769 2 932 13 932 8 0 61 -51 118 -112z"/>
</g>
</svg>
